<svg xmlns="http://www.w3.org/2000/svg" viewBox="0 0 900 140" width="900" height="140" role="img" aria-label="kubectl-sentinel — GreenerPlatform">
  <rect width="900" height="140" rx="14" fill="#F4F1EC"/>
  <rect x="0" y="0" width="6" height="140" rx="3" fill="#1E6E52"/>
  <path d="M48.325 34.68Q47.965 34.02 47.335 33.675Q46.705 33.33 45.865 33.33Q44.935 33.33 44.215 33.75Q43.495 34.17 43.09 34.95Q42.685 35.730000000000004 42.685 36.75Q42.685 37.8 43.0975 38.58Q43.51 39.36 44.245 39.78Q44.98 40.2 45.955 40.2Q47.155 40.2 47.92 39.5625Q48.685 38.925 48.925 37.785H45.325V36.18H50.995V38.01Q50.785 39.105 50.095 40.035Q49.405 40.965 48.317499999999995 41.5275Q47.23 42.09 45.88 42.09Q44.365 42.09 43.1425 41.4075Q41.92 40.725 41.2225 39.510000000000005Q40.525 38.295 40.525 36.75Q40.525 35.205 41.2225 33.9825Q41.92 32.76 43.1425 32.0775Q44.365 31.395 45.865 31.395Q47.635 31.395 48.94 32.2575Q50.245 33.120000000000005 50.74 34.68Z M57.605000000000004 33.57V35.775H57.050000000000004Q56.06 35.775 55.557500000000005 36.239999999999995Q55.055 36.705 55.055 37.86V42.0H52.955V33.69H55.055V34.980000000000004Q55.46 34.32 56.1125 33.945Q56.765 33.57 57.605000000000004 33.57Z M67.08 38.475H61.004999999999995Q61.08 39.375 61.635 39.885000000000005Q62.19 40.395 62.99999999999999 40.395Q64.17 40.395 64.66499999999999 39.39H66.92999999999999Q66.57 40.59 65.55 41.3625Q64.53 42.135 63.044999999999995 42.135Q61.845 42.135 60.8925 41.6025Q59.94 41.07 59.4075 40.095Q58.87499999999999 39.12 58.87499999999999 37.845Q58.87499999999999 36.555 59.39999999999999 35.58Q59.925 34.605000000000004 60.87 34.08Q61.815 33.555 63.044999999999995 33.555Q64.22999999999999 33.555 65.16749999999999 34.065Q66.10499999999999 34.575 66.6225 35.5125Q67.14 36.45 67.14 37.665Q67.14 38.115 67.08 38.475ZM64.96499999999999 37.065Q64.94999999999999 36.255 64.38 35.7675Q63.809999999999995 35.28 62.98499999999999 35.28Q62.205 35.28 61.6725 35.7525Q61.13999999999999 36.225 61.019999999999996 37.065Z M76.735 38.475H70.66Q70.735 39.375 71.28999999999999 39.885000000000005Q71.845 40.395 72.655 40.395Q73.825 40.395 74.32 39.39H76.585Q76.225 40.59 75.205 41.3625Q74.185 42.135 72.7 42.135Q71.5 42.135 70.5475 41.6025Q69.595 41.07 69.0625 40.095Q68.53 39.12 68.53 37.845Q68.53 36.555 69.055 35.58Q69.58 34.605000000000004 70.525 34.08Q71.47 33.555 72.7 33.555Q73.88499999999999 33.555 74.82249999999999 34.065Q75.75999999999999 34.575 76.2775 35.5125Q76.795 36.45 76.795 37.665Q76.795 38.115 76.735 38.475ZM74.61999999999999 37.065Q74.60499999999999 36.255 74.035 35.7675Q73.465 35.28 72.64 35.28Q71.86 35.28 71.3275 35.7525Q70.795 36.225 70.675 37.065Z M86.645 37.125V42.0H84.545V37.41Q84.545 36.42 84.05 35.8875Q83.55499999999999 35.355000000000004 82.7 35.355000000000004Q81.83 35.355000000000004 81.3275 35.8875Q80.825 36.42 80.825 37.41V42.0H78.725V33.69H80.825V34.725Q81.245 34.185 81.89750000000001 33.8775Q82.55 33.57 83.33 33.57Q84.815 33.57 85.72999999999999 34.5075Q86.645 35.445 86.645 37.125Z M96.705 38.475H90.63Q90.705 39.375 91.25999999999999 39.885000000000005Q91.815 40.395 92.625 40.395Q93.795 40.395 94.28999999999999 39.39H96.55499999999999Q96.195 40.59 95.175 41.3625Q94.155 42.135 92.67 42.135Q91.47 42.135 90.5175 41.6025Q89.565 41.07 89.0325 40.095Q88.5 39.12 88.5 37.845Q88.5 36.555 89.025 35.58Q89.55 34.605000000000004 90.495 34.08Q91.44 33.555 92.67 33.555Q93.85499999999999 33.555 94.79249999999999 34.065Q95.72999999999999 34.575 96.2475 35.5125Q96.765 36.45 96.765 37.665Q96.765 38.115 96.705 38.475ZM94.58999999999999 37.065Q94.57499999999999 36.255 94.005 35.7675Q93.435 35.28 92.61 35.28Q91.83 35.28 91.2975 35.7525Q90.765 36.225 90.645 37.065Z M103.345 33.57V35.775H102.78999999999999Q101.8 35.775 101.2975 36.239999999999995Q100.795 36.705 100.795 37.86V42.0H98.695V33.69H100.795V34.980000000000004Q101.2 34.32 101.85249999999999 33.945Q102.505 33.57 103.345 33.57Z M109.00999999999999 37.980000000000004H107.255V42.0H105.15499999999999V31.53H109.00999999999999Q110.225 31.53 111.07999999999998 31.950000000000003Q111.93499999999999 32.370000000000005 112.36249999999998 33.105000000000004Q112.78999999999999 33.84 112.78999999999999 34.77Q112.78999999999999 35.61 112.39249999999998 36.345Q111.99499999999999 37.08 111.14749999999998 37.53Q110.29999999999998 37.980000000000004 109.00999999999999 37.980000000000004ZM110.63 34.77Q110.63 33.24 108.91999999999999 33.24H107.255V36.285H108.91999999999999Q109.78999999999999 36.285 110.21 35.8875Q110.63 35.49 110.63 34.77Z M116.77499999999999 30.9V42.0H114.67499999999998V30.9Z M122.49999999999999 33.555Q123.42999999999998 33.555 124.12749999999997 33.93Q124.82499999999997 34.305 125.24499999999998 34.875V33.69H127.35999999999999V42.0H125.24499999999998V40.785Q124.83999999999997 41.37 124.12749999999997 41.7525Q123.41499999999998 42.135 122.48499999999999 42.135Q121.43499999999997 42.135 120.57249999999998 41.595Q119.70999999999998 41.055 119.20749999999998 40.072500000000005Q118.70499999999998 39.09 118.70499999999998 37.815Q118.70499999999998 36.555 119.20749999999998 35.58Q119.70999999999998 34.605000000000004 120.57249999999998 34.08Q121.43499999999997 33.555 122.49999999999999 33.555ZM123.03999999999998 35.4Q122.45499999999998 35.4 121.95999999999998 35.685Q121.46499999999997 35.97 121.15749999999997 36.5175Q120.84999999999998 37.065 120.84999999999998 37.815Q120.84999999999998 38.565 121.15749999999997 39.1275Q121.46499999999997 39.69 121.96749999999997 39.989999999999995Q122.46999999999998 40.29 123.03999999999998 40.29Q123.62499999999999 40.29 124.13499999999999 39.9975Q124.64499999999998 39.705 124.94499999999998 39.1575Q125.24499999999998 38.61 125.24499999999998 37.845Q125.24499999999998 37.08 124.94499999999998 36.5325Q124.64499999999998 35.985 124.13499999999999 35.692499999999995Q123.62499999999999 35.4 123.03999999999998 35.4Z M132.25999999999996 35.415V39.435Q132.25999999999996 39.855 132.46249999999998 40.0425Q132.66499999999996 40.23 133.14499999999998 40.23H134.11999999999998V42.0H132.79999999999998Q130.14499999999998 42.0 130.14499999999998 39.42V35.415H129.15499999999997V33.69H130.14499999999998V31.634999999999998H132.25999999999996V33.69H134.11999999999998V35.415Z M139.84499999999997 35.415H138.38999999999996V42.0H136.25999999999996V35.415H135.31499999999997V33.69H136.25999999999996V33.269999999999996Q136.25999999999996 31.740000000000002 137.12999999999997 31.020000000000003Q137.99999999999997 30.3 139.75499999999997 30.345V32.115Q138.98999999999998 32.1 138.68999999999997 32.370000000000005Q138.38999999999996 32.64 138.38999999999996 33.345V33.69H139.84499999999997Z M141.08499999999998 37.845Q141.08499999999998 36.57 141.64749999999998 35.595Q142.20999999999998 34.62 143.185 34.0875Q144.16 33.555 145.35999999999999 33.555Q146.56 33.555 147.535 34.0875Q148.51 34.62 149.0725 35.595Q149.635 36.57 149.635 37.845Q149.635 39.12 149.0575 40.095Q148.48 41.07 147.4975 41.6025Q146.515 42.135 145.29999999999998 42.135Q144.1 42.135 143.14 41.6025Q142.17999999999998 41.07 141.6325 40.095Q141.08499999999998 39.12 141.08499999999998 37.845ZM147.475 37.845Q147.475 36.66 146.8525 36.022499999999994Q146.23 35.385 145.32999999999998 35.385Q144.42999999999998 35.385 143.8225 36.022499999999994Q143.21499999999997 36.66 143.21499999999997 37.845Q143.21499999999997 39.03 143.80749999999998 39.667500000000004Q144.39999999999998 40.305 145.29999999999998 40.305Q145.86999999999998 40.305 146.3725 40.0275Q146.875 39.75 147.175 39.195Q147.475 38.64 147.475 37.845Z M156.22999999999996 33.57V35.775H155.67499999999995Q154.68499999999995 35.775 154.18249999999995 36.239999999999995Q153.67999999999995 36.705 153.67999999999995 37.86V42.0H151.57999999999996V33.69H153.67999999999995V34.980000000000004Q154.08499999999995 34.32 154.73749999999995 33.945Q155.38999999999996 33.57 156.22999999999996 33.57Z M171.76499999999996 37.125V42.0H169.66499999999996V37.41Q169.66499999999996 36.435 169.16999999999996 35.917500000000004Q168.67499999999995 35.4 167.81999999999996 35.4Q166.96499999999997 35.4 166.46249999999998 35.917500000000004Q165.95999999999998 36.435 165.95999999999998 37.41V42.0H163.85999999999996V37.41Q163.85999999999996 36.435 163.36499999999995 35.917500000000004Q162.86999999999998 35.4 162.01499999999996 35.4Q161.14499999999995 35.4 160.64249999999996 35.917500000000004Q160.13999999999996 36.435 160.13999999999996 37.41V42.0H158.03999999999996V33.69H160.13999999999996V34.695Q160.54499999999996 34.17 161.18249999999995 33.870000000000005Q161.81999999999996 33.57 162.58499999999998 33.57Q163.55999999999997 33.57 164.325 33.9825Q165.08999999999997 34.395 165.50999999999996 35.16Q165.91499999999996 34.44 166.68749999999997 34.004999999999995Q167.45999999999998 33.57 168.35999999999996 33.57Q169.88999999999996 33.57 170.82749999999996 34.5075Q171.76499999999996 35.445 171.76499999999996 37.125Z" fill="#1E6E52"/>
  <path d="M182.23999999999995 36.885Q182.23999999999995 36.495000000000005 182.50999999999993 36.225Q182.77999999999994 35.955 183.16999999999996 35.955Q183.54499999999996 35.955 183.80749999999995 36.225Q184.06999999999996 36.495000000000005 184.06999999999996 36.885Q184.06999999999996 37.275 183.80749999999995 37.545Q183.54499999999996 37.815000000000005 183.16999999999996 37.815000000000005Q182.77999999999994 37.815000000000005 182.50999999999993 37.545Q182.23999999999995 37.275 182.23999999999995 36.885Z M200.65999999999997 39.675H196.09999999999997L195.25999999999996 42.0H193.81999999999996L197.59999999999997 31.605H199.17499999999995L202.93999999999997 42.0H201.49999999999997ZM200.26999999999995 38.565 198.37999999999997 33.285 196.48999999999995 38.565Z M206.15499999999997 31.545V42.0H204.78999999999996V31.545Z M218.38999999999996 42.0 215.89999999999995 37.725H214.24999999999997V42.0H212.88499999999996V31.545H216.25999999999996Q217.44499999999996 31.545 218.26249999999996 31.950000000000003Q219.07999999999996 32.355000000000004 219.48499999999996 33.045Q219.88999999999996 33.735 219.88999999999996 34.62Q219.88999999999996 35.7 219.26749999999996 36.525000000000006Q218.64499999999995 37.35 217.39999999999995 37.62L220.02499999999995 42.0ZM214.24999999999997 36.63H216.25999999999996Q217.36999999999995 36.63 217.92499999999995 36.082499999999996Q218.47999999999996 35.535 218.47999999999996 34.62Q218.47999999999996 33.69 217.93249999999995 33.18Q217.38499999999996 32.67 216.25999999999996 32.67H214.24999999999997Z M229.65999999999997 38.4H223.08999999999995Q223.16499999999996 39.615 223.92249999999996 40.2975Q224.67999999999995 40.98 225.75999999999996 40.98Q226.64499999999995 40.98 227.23749999999995 40.567499999999995Q227.82999999999996 40.155 228.06999999999996 39.465H229.53999999999996Q229.20999999999995 40.65 228.21999999999997 41.3925Q227.22999999999996 42.135 225.75999999999996 42.135Q224.58999999999995 42.135 223.66749999999996 41.61Q222.74499999999995 41.085 222.21999999999997 40.1175Q221.69499999999996 39.15 221.69499999999996 37.875Q221.69499999999996 36.6 222.20499999999996 35.64Q222.71499999999995 34.68 223.63749999999993 34.162499999999994Q224.55999999999995 33.644999999999996 225.75999999999996 33.644999999999996Q226.92999999999995 33.644999999999996 227.82999999999996 34.155Q228.72999999999996 34.665 229.21749999999997 35.557500000000005Q229.70499999999996 36.45 229.70499999999996 37.575Q229.70499999999996 37.965 229.65999999999997 38.4ZM225.69999999999996 34.8Q224.66499999999996 34.8 223.93749999999994 35.459999999999994Q223.20999999999995 36.12 223.10499999999996 37.29H228.29499999999996Q228.29499999999996 36.51 227.94999999999996 35.9475Q227.60499999999996 35.385 227.01249999999996 35.0925Q226.41999999999996 34.8 225.69999999999996 34.8Z M233.06999999999996 30.9V42.0H231.70499999999996V30.9Z M235.36999999999998 31.515Q235.36999999999998 31.125 235.64 30.855Q235.90999999999997 30.585 236.29999999999998 30.585Q236.67499999999998 30.585 236.93749999999997 30.855Q237.19999999999996 31.125 237.19999999999996 31.515Q237.19999999999996 31.905 236.93749999999997 32.175Q236.67499999999998 32.445 236.29999999999998 32.445Q235.90999999999997 32.445 235.64 32.175Q235.36999999999998 31.905 235.36999999999998 31.515ZM236.95999999999998 33.78V42.0H235.59499999999997V33.78Z M242.87499999999997 33.644999999999996Q243.95499999999998 33.644999999999996 244.75 34.11Q245.545 34.575 245.93499999999997 35.28V33.78H247.315V42.0H245.93499999999997V40.47Q245.52999999999997 41.19 244.72749999999996 41.662499999999994Q243.92499999999998 42.135 242.85999999999999 42.135Q241.765 42.135 240.88 41.595Q239.99499999999998 41.055 239.48499999999999 40.08Q238.975 39.105 238.975 37.86Q238.975 36.6 239.48499999999999 35.6475Q239.99499999999998 34.695 240.8875 34.17Q241.77999999999997 33.644999999999996 242.87499999999997 33.644999999999996ZM243.14499999999998 34.83Q242.38 34.83 241.75 35.19Q241.11999999999998 35.55 240.74499999999998 36.239999999999995Q240.36999999999998 36.93 240.36999999999998 37.86Q240.36999999999998 38.805 240.74499999999998 39.5025Q241.11999999999998 40.2 241.75 40.5675Q242.38 40.935 243.14499999999998 40.935Q243.91 40.935 244.54749999999999 40.5675Q245.18499999999997 40.2 245.55999999999997 39.5025Q245.93499999999997 38.805 245.93499999999997 37.875Q245.93499999999997 36.945 245.55999999999997 36.254999999999995Q245.18499999999997 35.565 244.54749999999999 35.1975Q243.91 34.83 243.14499999999998 34.83Z M254.26499999999996 33.644999999999996Q255.37499999999997 33.644999999999996 256.26 34.17Q257.145 34.695 257.655 35.6475Q258.16499999999996 36.6 258.16499999999996 37.86Q258.16499999999996 39.105 257.655 40.08Q257.145 41.055 256.25249999999994 41.595Q255.35999999999996 42.135 254.26499999999996 42.135Q253.19999999999996 42.135 252.39749999999998 41.67Q251.59499999999997 41.205 251.18999999999997 40.485V42.0H249.82499999999996V30.9H251.18999999999997V35.31Q251.60999999999996 34.575 252.41999999999996 34.11Q253.22999999999996 33.644999999999996 254.26499999999996 33.644999999999996ZM253.97999999999996 34.83Q253.22999999999996 34.83 252.59249999999997 35.1975Q251.95499999999996 35.565 251.57249999999996 36.2625Q251.18999999999997 36.96 251.18999999999997 37.875Q251.18999999999997 38.805 251.57249999999996 39.5025Q251.95499999999996 40.2 252.59249999999997 40.5675Q253.22999999999996 40.935 253.97999999999996 40.935Q254.74499999999995 40.935 255.38249999999996 40.5675Q256.02 40.2 256.395 39.5025Q256.77 38.805 256.77 37.86Q256.77 36.93 256.395 36.239999999999995Q256.02 35.55 255.38249999999996 35.19Q254.74499999999995 34.83 253.97999999999996 34.83Z M259.94 31.515Q259.94 31.125 260.21000000000004 30.855Q260.48 30.585 260.87 30.585Q261.245 30.585 261.5075 30.855Q261.77 31.125 261.77 31.515Q261.77 31.905 261.5075 32.175Q261.245 32.445 260.87 32.445Q260.48 32.445 260.21000000000004 32.175Q259.94 31.905 259.94 31.515ZM261.53 33.78V42.0H260.16499999999996V33.78Z M265.41999999999996 30.9V42.0H264.05499999999995V30.9Z M267.71999999999997 31.515Q267.71999999999997 31.125 267.99 30.855Q268.26 30.585 268.65 30.585Q269.025 30.585 269.28749999999997 30.855Q269.54999999999995 31.125 269.54999999999995 31.515Q269.54999999999995 31.905 269.28749999999997 32.175Q269.025 32.445 268.65 32.445Q268.26 32.445 267.99 32.175Q267.71999999999997 31.905 267.71999999999997 31.515ZM269.30999999999995 33.78V42.0H267.94499999999994V33.78Z M273.49999999999994 34.905V39.75Q273.49999999999994 40.35 273.75499999999994 40.5975Q274.00999999999993 40.845 274.63999999999993 40.845H275.6449999999999V42.0H274.41499999999996Q273.275 42.0 272.7049999999999 41.475Q272.13499999999993 40.95 272.13499999999993 39.75V34.905H271.06999999999994V33.78H272.13499999999993V31.71H273.49999999999994V33.78H275.6449999999999V34.905Z M284.575 33.78 279.625 45.87H278.215L279.835 41.91L276.52 33.78H278.03499999999997L280.61499999999995 40.44L283.16499999999996 33.78Z" fill="#4A4E57"/>
  <path d="M56.120000000000005 86.0 49.32 76.64V86.0H42.48V56.4H49.32V72.76L56.08 63.68H64.52L55.24 74.88L64.6 86.0Z M89.24 63.68V86.0H82.4V82.96Q81.36 84.44 79.58 85.34Q77.8 86.24 75.64 86.24Q73.08 86.24 71.12 85.1Q69.16 83.96 68.08 81.8Q67.0 79.64 67.0 76.72V63.68H73.8V75.8Q73.8 78.04 74.96000000000001 79.28Q76.12 80.52 78.08 80.52Q80.08 80.52 81.24000000000001 79.28Q82.4 78.04 82.4 75.8V63.68Z M107.88000000000001 63.36Q110.64000000000001 63.36 112.88000000000001 64.75999999999999Q115.12 66.16 116.42 68.75999999999999Q117.72 71.36 117.72 74.8Q117.72 78.24 116.42 80.86Q115.12 83.48 112.88000000000001 84.9Q110.64000000000001 86.32 107.88000000000001 86.32Q105.52000000000001 86.32 103.76 85.38Q102.0 84.44 101.0 82.88V86.0H94.16000000000001V56.4H101.0V66.84Q101.96000000000001 65.28 103.76 64.32Q105.56 63.36 107.88000000000001 63.36ZM105.84 69.32Q103.80000000000001 69.32 102.38000000000001 70.8Q100.96000000000001 72.28 100.96000000000001 74.84Q100.96000000000001 77.4 102.38000000000001 78.88Q103.80000000000001 80.36 105.84 80.36Q107.88000000000001 80.36 109.32000000000001 78.86Q110.76 77.36 110.76 74.8Q110.76 72.24 109.34 70.78Q107.92000000000002 69.32 105.84 69.32Z M142.24 76.48H126.76Q126.92 78.56 128.1 79.66Q129.28 80.76 131.0 80.76Q133.56 80.76 134.56 78.6H141.84Q141.28 80.8 139.82 82.56Q138.36 84.32 136.16000000000003 85.32Q133.96 86.32 131.24 86.32Q127.96000000000001 86.32 125.4 84.91999999999999Q122.84 83.52 121.4 80.91999999999999Q119.96000000000001 78.32 119.96000000000001 74.84Q119.96000000000001 71.36 121.38 68.75999999999999Q122.8 66.16 125.36 64.75999999999999Q127.92 63.36 131.24 63.36Q134.48000000000002 63.36 137.0 64.72Q139.52 66.08 140.94 68.6Q142.36 71.12 142.36 74.48Q142.36 75.44 142.24 76.48ZM135.36 72.68Q135.36 70.92 134.16000000000003 69.88Q132.96 68.84 131.16 68.84Q129.44 68.84 128.26 69.84Q127.08 70.84 126.8 72.68Z M155.8 63.36Q160.00000000000003 63.36 162.82000000000002 65.56Q165.64000000000001 67.75999999999999 166.52 71.76H159.24Q158.32000000000002 69.2 155.68 69.2Q153.8 69.2 152.68 70.66Q151.56000000000003 72.12 151.56000000000003 74.84Q151.56000000000003 77.56 152.68 79.02000000000001Q153.8 80.48 155.68 80.48Q158.32000000000002 80.48 159.24 77.92H166.52Q165.64000000000001 81.84 162.8 84.08Q159.96 86.32 155.8 86.32Q152.52 86.32 149.98000000000002 84.91999999999999Q147.44000000000003 83.52 146.02000000000004 80.91999999999999Q144.60000000000002 78.32 144.60000000000002 74.84Q144.60000000000002 71.36 146.02000000000004 68.75999999999999Q147.44000000000003 66.16 149.98000000000002 64.75999999999999Q152.52 63.36 155.8 63.36Z M182.6 80.2V86.0H179.12Q175.4 86.0 173.32 84.18Q171.24 82.36 171.24 78.24V69.36H168.52V63.68H171.24V58.239999999999995H178.08V63.68H182.56V69.36H178.08V78.32Q178.08 79.32 178.56 79.75999999999999Q179.04000000000002 80.2 180.16 80.2Z M193.24 56.4V86.0H186.4V56.4Z M215.40000000000003 69.12V74.8H197.80000000000004V69.12Z M220.20000000000002 78.68H226.96Q227.08 79.84 228.04000000000002 80.56Q229.00000000000003 81.28 230.4 81.28Q231.68 81.28 232.38 80.78Q233.08 80.28 233.08 79.48Q233.08 78.52 232.08 78.06Q231.08 77.6 228.84 77.03999999999999Q226.44000000000003 76.48 224.84000000000003 75.86Q223.24 75.24 222.08 73.9Q220.92000000000002 72.56 220.92000000000002 70.28Q220.92000000000002 68.36 221.98000000000002 66.78Q223.04000000000002 65.2 225.10000000000002 64.28Q227.16000000000003 63.36 230.00000000000003 63.36Q234.20000000000002 63.36 236.62 65.44Q239.04000000000002 67.52 239.4 70.96H233.08Q232.92000000000002 69.8 232.06 69.12Q231.20000000000002 68.44 229.8 68.44Q228.60000000000002 68.44 227.96000000000004 68.9Q227.32000000000002 69.36 227.32000000000002 70.16Q227.32000000000002 71.12 228.34000000000003 71.6Q229.36 72.08 231.52 72.56Q234.00000000000003 73.2 235.56 73.82Q237.12 74.44 238.3 75.82Q239.48000000000002 77.2 239.52 79.52Q239.52 81.48 238.42000000000002 83.02000000000001Q237.32000000000002 84.56 235.26000000000002 85.44Q233.20000000000002 86.32 230.48000000000002 86.32Q227.56 86.32 225.28000000000003 85.32Q223.00000000000003 84.32 221.68 82.58Q220.36 80.84 220.20000000000002 78.68Z M264.64 76.48H249.16Q249.32000000000002 78.56 250.5 79.66Q251.68 80.76 253.4 80.76Q255.96 80.76 256.96000000000004 78.6H264.24Q263.68 80.8 262.22 82.56Q260.76 84.32 258.56 85.32Q256.36 86.32 253.64000000000001 86.32Q250.36 86.32 247.8 84.91999999999999Q245.24 83.52 243.8 80.91999999999999Q242.36 78.32 242.36 74.84Q242.36 71.36 243.78000000000003 68.75999999999999Q245.20000000000002 66.16 247.76000000000002 64.75999999999999Q250.32000000000002 63.36 253.64000000000001 63.36Q256.88 63.36 259.4 64.72Q261.92 66.08 263.34000000000003 68.6Q264.76 71.12 264.76 74.48Q264.76 75.44 264.64 76.48ZM257.76 72.68Q257.76 70.92 256.56 69.88Q255.36 68.84 253.56 68.84Q251.84 68.84 250.66000000000003 69.84Q249.48000000000002 70.84 249.20000000000002 72.68Z M290.56 72.96V86.0H283.76V73.88Q283.76 71.64 282.6 70.4Q281.44 69.16 279.48 69.16Q277.52 69.16 276.36 70.4Q275.2 71.64 275.2 73.88V86.0H268.36V63.68H275.2V66.64Q276.24 65.16 278.0 64.3Q279.76 63.44 281.96 63.44Q285.88 63.44 288.22 65.97999999999999Q290.56 68.52 290.56 72.96Z M307.76000000000005 80.2V86.0H304.28000000000003Q300.56000000000006 86.0 298.48 84.18Q296.40000000000003 82.36 296.40000000000003 78.24V69.36H293.68V63.68H296.40000000000003V58.239999999999995H303.24V63.68H307.72V69.36H303.24V78.32Q303.24 79.32 303.72 79.75999999999999Q304.20000000000005 80.2 305.32000000000005 80.2Z M310.91999999999996 57.68Q310.91999999999996 56.08 312.05999999999995 55.019999999999996Q313.2 53.96 315.0 53.96Q316.76 53.96 317.9 55.019999999999996Q319.03999999999996 56.08 319.03999999999996 57.68Q319.03999999999996 59.239999999999995 317.9 60.3Q316.76 61.36 315.0 61.36Q313.2 61.36 312.05999999999995 60.3Q310.91999999999996 59.239999999999995 310.91999999999996 57.68ZM318.4 63.68V86.0H311.56V63.68Z M345.56 72.96V86.0H338.76V73.88Q338.76 71.64 337.6 70.4Q336.44 69.16 334.48 69.16Q332.52 69.16 331.36 70.4Q330.2 71.64 330.2 73.88V86.0H323.36V63.68H330.2V66.64Q331.24 65.16 333.0 64.3Q334.76 63.44 336.96 63.44Q340.88 63.44 343.22 65.97999999999999Q345.56 68.52 345.56 72.96Z M371.23999999999995 76.48H355.76Q355.91999999999996 78.56 357.09999999999997 79.66Q358.28 80.76 360.0 80.76Q362.56 80.76 363.56 78.6H370.84Q370.28 80.8 368.81999999999994 82.56Q367.35999999999996 84.32 365.15999999999997 85.32Q362.96 86.32 360.23999999999995 86.32Q356.96 86.32 354.4 84.91999999999999Q351.84 83.52 350.4 80.91999999999999Q348.96 78.32 348.96 74.84Q348.96 71.36 350.38 68.75999999999999Q351.79999999999995 66.16 354.35999999999996 64.75999999999999Q356.91999999999996 63.36 360.23999999999995 63.36Q363.47999999999996 63.36 366.0 64.72Q368.52 66.08 369.93999999999994 68.6Q371.35999999999996 71.12 371.35999999999996 74.48Q371.35999999999996 75.44 371.23999999999995 76.48ZM364.35999999999996 72.68Q364.35999999999996 70.92 363.15999999999997 69.88Q361.96 68.84 360.15999999999997 68.84Q358.44 68.84 357.26 69.84Q356.08 70.84 355.79999999999995 72.68Z M381.79999999999995 56.4V86.0H374.96V56.4Z" fill="#16181D"/>
  <path d="M43.35 114.0V112.77H46.32V104.22L43.35 106.44V104.895L45.825 103.05H47.67V112.77H50.1V114.0Z M55.41 114.15Q53.895 114.15 53.010000000000005 113.30250000000001Q52.125 112.455 52.125 111.0H53.475Q53.475 111.9 54.0 112.42500000000001Q54.525 112.95 55.425 112.95Q56.325 112.95 56.85 112.42500000000001Q57.375 111.9 57.375 111.0V110.325Q57.375 109.425 56.864999999999995 108.9Q56.355 108.375 55.485 108.375H52.5V103.05H58.335V104.28H53.76L53.79 107.145H55.56Q57.075 107.145 57.900000000000006 107.97749999999999Q58.725 108.81 58.725 110.325V111.0Q58.725 112.455 57.832499999999996 113.30250000000001Q56.94 114.15 55.41 114.15Z M70.38 114.0V103.05H71.73V107.325H71.745Q71.85 106.5 72.41999999999999 106.05Q72.99 105.6 73.935 105.6Q75.18 105.6 75.915 106.365Q76.65 107.13 76.65 108.45V114.0H75.3V108.675Q75.3 107.745 74.8275 107.2425Q74.355 106.74 73.545 106.74Q72.705 106.74 72.2175 107.265Q71.73 107.79 71.73 108.75V114.0Z M82.5 114.15Q81.045 114.15 80.1525 113.27250000000001Q79.26 112.395 79.26 110.85V108.9Q79.26 107.355 80.1525 106.47749999999999Q81.045 105.6 82.5 105.6Q83.475 105.6 84.2025 105.99Q84.93 106.38 85.33500000000001 107.08500000000001Q85.74 107.79 85.74 108.75V110.22H80.58V111.0Q80.58 111.915 81.10499999999999 112.4475Q81.63 112.98 82.5 112.98Q83.25 112.98 83.7375 112.6875Q84.225 112.395 84.33 111.9H85.68Q85.545 112.935 84.67500000000001 113.5425Q83.805 114.15 82.5 114.15ZM80.58 109.17H84.42V108.75Q84.42 107.775 83.9175 107.2425Q83.415 106.71 82.5 106.71Q81.585 106.71 81.0825 107.2425Q80.58 107.775 80.58 108.75Z M90.78 114.15Q89.505 114.15 88.755 113.4375Q88.005 112.725 88.005 111.57Q88.005 110.805 88.35 110.23500000000001Q88.695 109.665 89.31 109.3425Q89.925 109.02 90.72 109.02H93.27V108.375Q93.27 106.77 91.515 106.77Q90.735 106.77 90.255 107.055Q89.775 107.34 89.745 107.85H88.395Q88.47 106.875 89.30250000000001 106.2375Q90.135 105.6 91.515 105.6Q93.015 105.6 93.8175 106.32Q94.62 107.04 94.62 108.33V114.0H93.285V112.5H93.255Q93.135 113.265 92.49000000000001 113.70750000000001Q91.845 114.15 90.78 114.15ZM91.11 113.01Q92.1 113.01 92.685 112.53Q93.27 112.05 93.27 111.225V110.07H90.87Q90.21 110.07 89.7975 110.4675Q89.385 110.865 89.385 111.525Q89.385 112.215 89.8425 112.61250000000001Q90.3 113.01 91.11 113.01Z M101.7 114.0Q100.605 114.0 99.9525 113.3625Q99.3 112.725 99.3 111.675V104.28H96.45V103.05H100.65V111.675Q100.65 112.185 100.935 112.47749999999999Q101.22 112.77 101.7 112.77H104.25V114.0Z M110.325 114.0Q109.305 114.0 108.69 113.4075Q108.075 112.815 108.075 111.825V106.98H105.705V105.75H108.075V103.425H109.425V105.75H112.8V106.98H109.425V111.825Q109.425 112.245 109.6725 112.5075Q109.92 112.77 110.325 112.77H112.725V114.0Z M115.38 114.0V103.05H116.73V107.325H116.745Q116.85 106.5 117.41999999999999 106.05Q117.99 105.6 118.935 105.6Q120.18 105.6 120.915 106.365Q121.65 107.13 121.65 108.45V114.0H120.3V108.675Q120.3 107.745 119.8275 107.2425Q119.355 106.74 118.545 106.74Q117.705 106.74 117.2175 107.265Q116.73 107.79 116.73 108.75V114.0Z M136.02 114.15Q134.79 114.15 134.0475 113.325Q133.305 112.5 133.305 111.09V108.675Q133.305 107.25 134.04000000000002 106.425Q134.775 105.6 136.02 105.6Q136.95 105.6 137.5575 106.065Q138.165 106.53 138.285 107.325H138.3L138.27 105.45V103.05H139.62V114.0H138.27V112.425H138.255Q138.15 113.235 137.55 113.6925Q136.95 114.15 136.02 114.15ZM136.47 112.98Q137.31 112.98 137.79000000000002 112.45500000000001Q138.27 111.93 138.27 111.0V108.75Q138.27 107.82 137.79000000000002 107.29499999999999Q137.31 106.77 136.47 106.77Q135.615 106.77 135.135 107.2125Q134.655 107.655 134.655 108.675V111.075Q134.655 112.08 135.135 112.53Q135.615 112.98 136.47 112.98Z M142.275 114.0V112.77H145.2V106.98H142.575V105.75H146.55V112.77H149.325V114.0ZM145.725 104.265Q145.23 104.265 144.945 104.00999999999999Q144.66 103.755 144.66 103.32Q144.66 102.87 144.945 102.6075Q145.23 102.345 145.725 102.345Q146.22 102.345 146.505 102.6075Q146.79 102.87 146.79 103.32Q146.79 103.755 146.505 104.00999999999999Q146.22 104.265 145.725 104.265Z M150.9 114.0V105.75H152.07V106.845H152.1Q152.175 106.29 152.54250000000002 105.945Q152.91 105.6 153.48 105.6Q154.02 105.6 154.395 105.91499999999999Q154.77 106.23 154.935 106.77H154.95Q155.055 106.23 155.4225 105.91499999999999Q155.79 105.6 156.36 105.6Q157.155 105.6 157.6275 106.1925Q158.1 106.785 158.1 107.73V114.0H156.84V107.715Q156.84 107.22 156.60000000000002 106.92750000000001Q156.36 106.635 155.94 106.635Q155.535 106.635 155.29500000000002 106.92Q155.055 107.205 155.055 107.7V114.0H153.945V107.715Q153.945 107.22 153.70499999999998 106.92750000000001Q153.465 106.635 153.06 106.635Q152.64 106.635 152.39999999999998 106.92Q152.16 107.205 152.16 107.7V114.0Z M163.5 114.15Q162.045 114.15 161.15249999999997 113.27250000000001Q160.26 112.395 160.26 110.85V108.9Q160.26 107.355 161.15249999999997 106.47749999999999Q162.045 105.6 163.5 105.6Q164.475 105.6 165.2025 105.99Q165.93 106.38 166.335 107.08500000000001Q166.74 107.79 166.74 108.75V110.22H161.58V111.0Q161.58 111.915 162.10500000000002 112.4475Q162.63 112.98 163.5 112.98Q164.25 112.98 164.7375 112.6875Q165.225 112.395 165.33 111.9H166.68Q166.545 112.935 165.675 113.5425Q164.805 114.15 163.5 114.15ZM161.58 109.17H165.42V108.75Q165.42 107.775 164.9175 107.2425Q164.415 106.71 163.5 106.71Q162.585 106.71 162.0825 107.2425Q161.58 107.775 161.58 108.75Z M169.38 114.0V105.75H170.73V107.325H170.745Q170.85 106.5 171.42000000000002 106.05Q171.99 105.6 172.935 105.6Q174.18 105.6 174.91500000000002 106.365Q175.65 107.13 175.65 108.45V114.0H174.3V108.69Q174.3 107.745 173.8275 107.2425Q173.355 106.74 172.545 106.74Q171.705 106.74 171.2175 107.265Q170.73 107.79 170.73 108.75V114.0Z M181.17 114.12Q179.79 114.12 179.0325 113.4975Q178.275 112.875 178.275 111.735H179.625Q179.625 112.305 180.03 112.6275Q180.435 112.95 181.17 112.95H181.83Q182.58 112.95 182.9925 112.62Q183.405 112.29 183.405 111.69Q183.405 110.625 182.43 110.49L180.15 110.16Q179.31 110.04 178.845 109.4625Q178.38 108.885 178.38 107.94Q178.38 106.86 179.1225 106.245Q179.865 105.63 181.17 105.63H181.83Q183.03 105.63 183.7875 106.2225Q184.545 106.815 184.605 107.775H183.24Q183.21 107.34 182.8275 107.055Q182.445 106.77 181.83 106.77H181.17Q180.48 106.77 180.08999999999997 107.08500000000001Q179.7 107.4 179.7 107.94Q179.7 108.81 180.495 108.93L182.625 109.23Q184.725 109.53 184.725 111.69Q184.725 112.845 183.9675 113.4825Q183.21 114.12 181.83 114.12Z M187.275 114.0V112.77H190.2V106.98H187.575V105.75H191.55V112.77H194.325V114.0ZM190.725 104.265Q190.23 104.265 189.945 104.00999999999999Q189.66 103.755 189.66 103.32Q189.66 102.87 189.945 102.6075Q190.23 102.345 190.725 102.345Q191.22 102.345 191.505 102.6075Q191.79 102.87 191.79 103.32Q191.79 103.755 191.505 104.00999999999999Q191.22 104.265 190.725 104.265Z M199.5 114.12Q198.015 114.12 197.1375 113.25Q196.26 112.38 196.26 110.82V108.93Q196.26 107.355 197.13 106.4925Q198.0 105.63 199.5 105.63Q201.0 105.63 201.87 106.4925Q202.74 107.355 202.74 108.93V110.82Q202.74 112.38 201.8625 113.25Q200.985 114.12 199.5 114.12ZM199.5 112.92Q200.385 112.92 200.8875 112.42500000000001Q201.39 111.93 201.39 110.97V108.78Q201.39 107.82 200.8875 107.32499999999999Q200.385 106.83 199.5 106.83Q198.63 106.83 198.12 107.32499999999999Q197.61 107.82 197.61 108.78V110.97Q197.61 111.93 198.12 112.42500000000001Q198.63 112.92 199.5 112.92Z M205.38 114.0V105.75H206.73V107.325H206.745Q206.85 106.5 207.42000000000002 106.05Q207.99 105.6 208.935 105.6Q210.18 105.6 210.91500000000002 106.365Q211.65 107.13 211.65 108.45V114.0H210.3V108.69Q210.3 107.745 209.8275 107.2425Q209.355 106.74 208.545 106.74Q207.705 106.74 207.2175 107.265Q206.73 107.79 206.73 108.75V114.0Z M217.17 114.12Q215.79 114.12 215.0325 113.4975Q214.275 112.875 214.275 111.735H215.625Q215.625 112.305 216.03 112.6275Q216.435 112.95 217.17 112.95H217.83Q218.58 112.95 218.9925 112.62Q219.405 112.29 219.405 111.69Q219.405 110.625 218.43 110.49L216.15 110.16Q215.31 110.04 214.845 109.4625Q214.38 108.885 214.38 107.94Q214.38 106.86 215.1225 106.245Q215.865 105.63 217.17 105.63H217.83Q219.03 105.63 219.7875 106.2225Q220.545 106.815 220.605 107.775H219.24Q219.21 107.34 218.8275 107.055Q218.445 106.77 217.83 106.77H217.17Q216.48 106.77 216.08999999999997 107.08500000000001Q215.7 107.4 215.7 107.94Q215.7 108.81 216.495 108.93L218.625 109.23Q220.725 109.53 220.725 111.69Q220.725 112.845 219.9675 113.4825Q219.21 114.12 217.83 114.12Z M235.5 110.10000000000001Q234.945 110.10000000000001 234.60750000000002 109.77000000000001Q234.27 109.44 234.27 108.915Q234.27 108.36 234.60750000000002 108.015Q234.945 107.67 235.5 107.67Q236.055 107.67 236.39249999999998 108.015Q236.73 108.36 236.73 108.915Q236.73 109.44 236.39249999999998 109.77000000000001Q236.055 110.10000000000001 235.5 110.10000000000001Z M253.5 114.15Q252.045 114.15 251.15249999999997 113.27250000000001Q250.26 112.395 250.26 110.85V108.9Q250.26 107.355 251.15249999999997 106.47749999999999Q252.045 105.6 253.5 105.6Q254.475 105.6 255.2025 105.99Q255.93 106.38 256.33500000000004 107.08500000000001Q256.74 107.79 256.74 108.75V110.22H251.58V111.0Q251.58 111.915 252.10500000000002 112.4475Q252.63 112.98 253.5 112.98Q254.25 112.98 254.7375 112.6875Q255.225 112.395 255.33 111.9H256.68Q256.545 112.935 255.675 113.5425Q254.805 114.15 253.5 114.15ZM251.58 109.17H255.42V108.75Q255.42 107.775 254.9175 107.2425Q254.415 106.71 253.5 106.71Q252.585 106.71 252.0825 107.2425Q251.58 107.775 251.58 108.75Z M261.615 114.0 258.81 105.75H260.265L262.065 111.3Q262.23 111.795 262.35 112.2525Q262.47 112.71 262.53 112.965Q262.605 112.71 262.71000000000004 112.2525Q262.815 111.795 262.965 111.3L264.765 105.75H266.19L263.385 114.0Z M271.5 114.15Q270.045 114.15 269.15250000000003 113.27250000000001Q268.26 112.395 268.26 110.85V108.9Q268.26 107.355 269.15250000000003 106.47749999999999Q270.045 105.6 271.5 105.6Q272.475 105.6 273.2025 105.99Q273.93 106.38 274.33500000000004 107.08500000000001Q274.74 107.79 274.74 108.75V110.22H269.58V111.0Q269.58 111.915 270.105 112.4475Q270.63 112.98 271.5 112.98Q272.25 112.98 272.7375 112.6875Q273.225 112.395 273.33 111.9H274.68Q274.545 112.935 273.675 113.5425Q272.805 114.15 271.5 114.15ZM269.58 109.17H273.42V108.75Q273.42 107.775 272.9175 107.2425Q272.415 106.71 271.5 106.71Q270.585 106.71 270.0825 107.2425Q269.58 107.775 269.58 108.75Z M277.68 114.0V105.75H279.03V107.325H279.06Q279.165 106.53 279.735 106.065Q280.305 105.6 281.265 105.6Q282.555 105.6 283.2525 106.3725Q283.95 107.145 283.95 108.57V109.275H282.6V108.57Q282.6 106.77 280.845 106.77Q279.96 106.77 279.495 107.28Q279.03 107.79 279.03 108.75V114.0Z M287.67 116.7 288.885 113.49 285.81 105.75H287.265L289.215 110.85Q289.335 111.15 289.44 111.48Q289.545 111.81 289.59 112.05Q289.635 111.81 289.74 111.48Q289.845 111.15 289.95 110.85L291.765 105.75H293.19L289.08 116.7Z M306.225 114.0V108.105H303.825V106.875H306.225V105.15Q306.225 104.175 306.84000000000003 103.6125Q307.455 103.05 308.535 103.05H310.95V104.28H308.535Q307.575 104.28 307.575 105.15V106.875H310.95V108.105H307.575V114.0Z M313.275 114.0V112.77H316.2V106.98H313.575V105.75H317.55V112.77H320.325V114.0ZM316.725 104.265Q316.23 104.265 315.94500000000005 104.00999999999999Q315.66 103.755 315.66 103.32Q315.66 102.87 315.94500000000005 102.6075Q316.23 102.345 316.725 102.345Q317.22 102.345 317.505 102.6075Q317.79 102.87 317.79 103.32Q317.79 103.755 317.505 104.00999999999999Q317.22 104.265 316.725 104.265Z M322.38 114.0V105.75H323.73V107.325H323.745Q323.85 106.5 324.42 106.05Q324.99 105.6 325.935 105.6Q327.18 105.6 327.91499999999996 106.365Q328.65 107.13 328.65 108.45V114.0H327.3V108.69Q327.3 107.745 326.8275 107.2425Q326.355 106.74 325.545 106.74Q324.705 106.74 324.2175 107.265Q323.73 107.79 323.73 108.75V114.0Z M334.02 114.15Q332.79 114.15 332.0475 113.325Q331.305 112.5 331.305 111.09V108.675Q331.305 107.25 332.03999999999996 106.425Q332.775 105.6 334.02 105.6Q334.95 105.6 335.5575 106.065Q336.165 106.53 336.285 107.325H336.3L336.27 105.45V103.05H337.62V114.0H336.27V112.425H336.255Q336.15 113.235 335.54999999999995 113.6925Q334.95 114.15 334.02 114.15ZM334.47 112.98Q335.31 112.98 335.78999999999996 112.45500000000001Q336.27 111.93 336.27 111.0V108.75Q336.27 107.82 335.78999999999996 107.29499999999999Q335.31 106.77 334.47 106.77Q333.615 106.77 333.135 107.2125Q332.655 107.655 332.655 108.675V111.075Q332.655 112.08 333.135 112.53Q333.615 112.98 334.47 112.98Z M340.275 114.0V112.77H343.2V106.98H340.575V105.75H344.55V112.77H347.325V114.0ZM343.725 104.265Q343.23 104.265 342.94500000000005 104.00999999999999Q342.66 103.755 342.66 103.32Q342.66 102.87 342.94500000000005 102.6075Q343.23 102.345 343.725 102.345Q344.22 102.345 344.505 102.6075Q344.79 102.87 344.79 103.32Q344.79 103.755 344.505 104.00999999999999Q344.22 104.265 343.725 104.265Z M349.38 114.0V105.75H350.73V107.325H350.745Q350.85 106.5 351.42 106.05Q351.99 105.6 352.935 105.6Q354.18 105.6 354.91499999999996 106.365Q355.65 107.13 355.65 108.45V114.0H354.3V108.69Q354.3 107.745 353.8275 107.2425Q353.355 106.74 352.545 106.74Q351.705 106.74 351.2175 107.265Q350.73 107.79 350.73 108.75V114.0Z M359.415 116.7V115.47H361.74Q362.445 115.47 362.85 115.07249999999999Q363.255 114.675 363.255 114.0V113.25L363.285 111.9H363.24Q363.12 112.635 362.53499999999997 113.0325Q361.95 113.43 361.065 113.43Q359.79 113.43 359.055 112.62Q358.32 111.81 358.32 110.4V108.66Q358.32 107.25 359.055 106.425Q359.79 105.6 361.065 105.6Q361.95 105.6 362.53499999999997 106.02Q363.12 106.44 363.24 107.175H363.27V105.75H364.605V114.0Q364.605 115.245 363.8325 115.9725Q363.06 116.7 361.725 116.7ZM361.47 112.305Q362.31 112.305 362.78999999999996 111.78Q363.27 111.255 363.27 110.325V108.75Q363.27 107.82 362.78999999999996 107.29499999999999Q362.31 106.77 361.47 106.77Q360.615 106.77 360.14250000000004 107.265Q359.67 107.76 359.67 108.6V110.475Q359.67 111.315 360.14250000000004 111.81Q360.615 112.305 361.47 112.305Z M379.17 114.12Q377.79 114.12 377.0325 113.4975Q376.275 112.875 376.275 111.735H377.625Q377.625 112.305 378.03 112.6275Q378.435 112.95 379.17 112.95H379.83Q380.58 112.95 380.99249999999995 112.62Q381.405 112.29 381.405 111.69Q381.405 110.625 380.43 110.49L378.15 110.16Q377.31 110.04 376.845 109.4625Q376.38 108.885 376.38 107.94Q376.38 106.86 377.1225 106.245Q377.865 105.63 379.17 105.63H379.83Q381.03 105.63 381.7875 106.2225Q382.545 106.815 382.605 107.775H381.24Q381.21 107.34 380.8275 107.055Q380.445 106.77 379.83 106.77H379.17Q378.48 106.77 378.09000000000003 107.08500000000001Q377.7 107.4 377.7 107.94Q377.7 108.81 378.495 108.93L380.625 109.23Q382.725 109.53 382.725 111.69Q382.725 112.845 381.9675 113.4825Q381.21 114.12 379.83 114.12Z M385.38 114.0V103.05H386.73V107.325H386.745Q386.85 106.5 387.42 106.05Q387.99 105.6 388.935 105.6Q390.18 105.6 390.91499999999996 106.365Q391.65 107.13 391.65 108.45V114.0H390.3V108.675Q390.3 107.745 389.8275 107.2425Q389.355 106.74 388.545 106.74Q387.705 106.74 387.2175 107.265Q386.73 107.79 386.73 108.75V114.0Z M394.275 114.0V112.77H397.2V106.98H394.575V105.75H398.55V112.77H401.325V114.0ZM397.725 104.265Q397.23 104.265 396.94500000000005 104.00999999999999Q396.66 103.755 396.66 103.32Q396.66 102.87 396.94500000000005 102.6075Q397.23 102.345 397.725 102.345Q398.22 102.345 398.505 102.6075Q398.79 102.87 398.79 103.32Q398.79 103.755 398.505 104.00999999999999Q398.22 104.265 397.725 104.265Z M403.38 116.7V105.75H404.73V107.325H404.745Q404.85 106.515 405.45000000000005 106.0575Q406.05 105.6 406.98 105.6Q408.225 105.6 408.96000000000004 106.41749999999999Q409.695 107.235 409.695 108.66V111.075Q409.695 112.5 408.96000000000004 113.325Q408.225 114.15 406.98 114.15Q406.05 114.15 405.45000000000005 113.685Q404.85 113.22 404.745 112.425H404.7L404.73 114.3V116.7ZM406.53 112.98Q407.385 112.98 407.865 112.53Q408.345 112.08 408.345 111.075V108.675Q408.345 107.655 407.865 107.2125Q407.385 106.77 406.53 106.77Q405.705 106.77 405.2175 107.29499999999999Q404.73 107.82 404.73 108.75V111.0Q404.73 111.93 405.2175 112.45500000000001Q405.705 112.98 406.53 112.98Z M415.17 114.12Q413.79 114.12 413.0325 113.4975Q412.275 112.875 412.275 111.735H413.625Q413.625 112.305 414.03 112.6275Q414.435 112.95 415.17 112.95H415.83Q416.58 112.95 416.99249999999995 112.62Q417.405 112.29 417.405 111.69Q417.405 110.625 416.43 110.49L414.15 110.16Q413.31 110.04 412.845 109.4625Q412.38 108.885 412.38 107.94Q412.38 106.86 413.1225 106.245Q413.865 105.63 415.17 105.63H415.83Q417.03 105.63 417.7875 106.2225Q418.545 106.815 418.605 107.775H417.24Q417.21 107.34 416.8275 107.055Q416.445 106.77 415.83 106.77H415.17Q414.48 106.77 414.09000000000003 107.08500000000001Q413.7 107.4 413.7 107.94Q413.7 108.81 414.495 108.93L416.625 109.23Q418.725 109.53 418.725 111.69Q418.725 112.845 417.9675 113.4825Q417.21 114.12 415.83 114.12Z M430.815 114.0 429.465 105.75H430.635L431.475 111.57Q431.52 111.9 431.565 112.2975Q431.61 112.695 431.625 112.95Q431.655 112.695 431.6925 112.2975Q431.73 111.9 431.79 111.57L432.825 105.75H434.175L435.21 111.57Q435.27 111.9 435.3225 112.2975Q435.375 112.695 435.39 112.95Q435.42 112.695 435.46500000000003 112.2975Q435.51 111.9 435.555 111.57L436.425 105.75H437.535L436.125 114.0H434.64L433.695 108.3Q433.635 107.88 433.5825 107.4075Q433.53 106.935 433.5 106.68Q433.485 106.935 433.425 107.4075Q433.365 107.88 433.29 108.3L432.3 114.0Z M439.275 114.0V112.77H442.2V106.98H439.575V105.75H443.55V112.77H446.325V114.0ZM442.725 104.265Q442.23 104.265 441.94500000000005 104.00999999999999Q441.66 103.755 441.66 103.32Q441.66 102.87 441.94500000000005 102.6075Q442.23 102.345 442.725 102.345Q443.22 102.345 443.505 102.6075Q443.79 102.87 443.79 103.32Q443.79 103.755 443.505 104.00999999999999Q443.22 104.265 442.725 104.265Z M452.325 114.0Q451.305 114.0 450.69 113.4075Q450.075 112.815 450.075 111.825V106.98H447.705V105.75H450.075V103.425H451.425V105.75H454.8V106.98H451.425V111.825Q451.425 112.245 451.6725 112.5075Q451.92 112.77 452.325 112.77H454.725V114.0Z M457.38 114.0V103.05H458.73V107.325H458.745Q458.85 106.5 459.42 106.05Q459.99 105.6 460.935 105.6Q462.18 105.6 462.91499999999996 106.365Q463.65 107.13 463.65 108.45V114.0H462.3V108.675Q462.3 107.745 461.8275 107.2425Q461.355 106.74 460.545 106.74Q459.705 106.74 459.2175 107.265Q458.73 107.79 458.73 108.75V114.0Z M479.325 114.0Q478.305 114.0 477.69 113.4075Q477.075 112.815 477.075 111.825V106.98H474.705V105.75H477.075V103.425H478.425V105.75H481.8V106.98H478.425V111.825Q478.425 112.245 478.6725 112.5075Q478.92 112.77 479.325 112.77H481.725V114.0Z M484.38 114.0V103.05H485.73V107.325H485.745Q485.85 106.5 486.42 106.05Q486.99 105.6 487.935 105.6Q489.18 105.6 489.91499999999996 106.365Q490.65 107.13 490.65 108.45V114.0H489.3V108.675Q489.3 107.745 488.8275 107.2425Q488.355 106.74 487.545 106.74Q486.705 106.74 486.2175 107.265Q485.73 107.79 485.73 108.75V114.0Z M496.5 114.15Q495.045 114.15 494.15250000000003 113.27250000000001Q493.26 112.395 493.26 110.85V108.9Q493.26 107.355 494.15250000000003 106.47749999999999Q495.045 105.6 496.5 105.6Q497.475 105.6 498.2025 105.99Q498.93 106.38 499.33500000000004 107.08500000000001Q499.74 107.79 499.74 108.75V110.22H494.58V111.0Q494.58 111.915 495.105 112.4475Q495.63 112.98 496.5 112.98Q497.25 112.98 497.7375 112.6875Q498.225 112.395 498.33 111.9H499.68Q499.545 112.935 498.675 113.5425Q497.805 114.15 496.5 114.15ZM494.58 109.17H498.42V108.75Q498.42 107.775 497.9175 107.2425Q497.415 106.71 496.5 106.71Q495.585 106.71 495.0825 107.2425Q494.58 107.775 494.58 108.75Z M513.225 114.0V108.105H510.825V106.875H513.225V105.15Q513.225 104.175 513.84 103.6125Q514.455 103.05 515.535 103.05H517.95V104.28H515.535Q514.575 104.28 514.575 105.15V106.875H517.95V108.105H514.575V114.0Z M520.275 114.0V112.77H523.2V106.98H520.575V105.75H524.55V112.77H527.325V114.0ZM523.725 104.265Q523.23 104.265 522.9449999999999 104.00999999999999Q522.66 103.755 522.66 103.32Q522.66 102.87 522.9449999999999 102.6075Q523.23 102.345 523.725 102.345Q524.22 102.345 524.5050000000001 102.6075Q524.7900000000001 102.87 524.7900000000001 103.32Q524.7900000000001 103.755 524.5050000000001 104.00999999999999Q524.22 104.265 523.725 104.265Z M528.75 114.0 531.675 109.755 528.93 105.75H530.52L532.155 108.3Q532.26 108.465 532.3575000000001 108.66Q532.455 108.855 532.515 108.975Q532.56 108.855 532.6575 108.66Q532.755 108.465 532.86 108.3L534.495 105.75H536.085L533.34 109.77L536.25 114.0H534.66L532.89 111.3Q532.785 111.135 532.6875 110.9175Q532.59 110.7 532.515 110.565Q532.455 110.7 532.3425 110.9175Q532.23 111.135 532.11 111.3L530.34 114.0Z M550.5 110.10000000000001Q549.945 110.10000000000001 549.6075000000001 109.77000000000001Q549.27 109.44 549.27 108.915Q549.27 108.36 549.6075000000001 108.015Q549.945 107.67 550.5 107.67Q551.055 107.67 551.3924999999999 108.015Q551.73 108.36 551.73 108.915Q551.73 109.44 551.3924999999999 109.77000000000001Q551.055 110.10000000000001 550.5 110.10000000000001Z M568.05 114.15Q566.475 114.15 565.575 113.265Q564.675 112.38 564.675 110.85H566.025Q566.025 111.855 566.5575 112.4025Q567.09 112.95 568.05 112.95Q569.01 112.95 569.5425 112.4025Q570.075 111.855 570.075 110.85V103.05H571.425V110.85Q571.425 112.38 570.5174999999999 113.265Q569.61 114.15 568.05 114.15Z M577.56 114.15Q575.97 114.15 575.0250000000001 113.31Q574.08 112.47 574.08 111.0H575.43Q575.43 111.915 576.015 112.4325Q576.6 112.95 577.56 112.95Q578.49 112.95 579.0450000000001 112.41Q579.6 111.87 579.6 111.0Q579.6 110.34 579.2475 109.85249999999999Q578.895 109.365 578.235 109.185L576.57 108.72Q575.535 108.42 574.9425 107.64750000000001Q574.35 106.875 574.35 105.825Q574.35 104.955 574.74 104.295Q575.13 103.635 575.835 103.26750000000001Q576.54 102.9 577.455 102.9Q578.385 102.9 579.0975 103.26750000000001Q579.81 103.635 580.2149999999999 104.2875Q580.62 104.94 580.62 105.795H579.27Q579.27 105.045 578.76 104.57249999999999Q578.25 104.1 577.455 104.1Q576.66 104.1 576.165 104.57249999999999Q575.67 105.045 575.67 105.795Q575.67 106.395 575.9925000000001 106.82249999999999Q576.315 107.25 576.9 107.415L578.61 107.895Q579.705 108.195 580.3125 109.0275Q580.92 109.86 580.92 111.0Q580.92 112.44 580.005 113.295Q579.09 114.15 577.56 114.15Z M586.5 114.15Q585.03 114.15 584.175 113.295Q583.32 112.44 583.32 110.85V106.2Q583.32 104.61 584.175 103.755Q585.03 102.9 586.5 102.9Q587.97 102.9 588.825 103.755Q589.68 104.61 589.68 106.185V110.85Q589.68 112.44 588.825 113.295Q587.97 114.15 586.5 114.15ZM586.5 112.935Q587.385 112.935 587.8575000000001 112.4325Q588.33 111.93 588.33 111.0V106.05Q588.33 105.12 587.8575000000001 104.6175Q587.385 104.115 586.5 104.115Q585.63 104.115 585.15 104.6175Q584.67 105.12 584.67 106.05V111.0Q584.67 111.93 585.15 112.4325Q585.63 112.935 586.5 112.935Z M592.35 114.0V103.05H594.15L597.495 112.425Q597.465 112.05 597.4275 111.5025Q597.39 110.955 597.3675000000001 110.3475Q597.345 109.74 597.345 109.2V103.05H598.65V114.0H596.85L593.52 104.625Q593.55 104.985 593.5799999999999 105.5325Q593.61 106.08 593.6324999999999 106.6875Q593.655 107.295 593.655 107.85V114.0Z M613.5 110.10000000000001Q612.945 110.10000000000001 612.6075000000001 109.77000000000001Q612.27 109.44 612.27 108.915Q612.27 108.36 612.6075000000001 108.015Q612.945 107.67 613.5 107.67Q614.055 107.67 614.3924999999999 108.015Q614.73 108.36 614.73 108.915Q614.73 109.44 614.3924999999999 109.77000000000001Q614.055 110.10000000000001 613.5 110.10000000000001Z M631.62 114.15Q630.12 114.15 629.25 113.31Q628.38 112.47 628.38 111.0V106.05Q628.38 104.58 629.25 103.74000000000001Q630.12 102.9 631.62 102.9Q633.09 102.9 633.96 103.7475Q634.83 104.595 634.83 106.05H633.48Q633.48 105.12 632.9925000000001 104.6175Q632.505 104.115 631.62 104.115Q630.735 104.115 630.2325000000001 104.6175Q629.73 105.12 629.73 106.05V111.0Q629.73 111.93 630.2325000000001 112.4325Q630.735 112.935 631.62 112.935Q632.505 112.935 632.9925000000001 112.4325Q633.48 111.93 633.48 111.0H634.83Q634.83 112.455 633.96 113.30250000000001Q633.09 114.15 631.62 114.15Z M637.575 114.0V112.77H639.81V104.28H637.575V103.05H643.425V104.28H641.19V112.77H643.425V114.0Z M647.1 109.65V108.45H651.9V109.65Z M658.17 114.12Q656.79 114.12 656.0325 113.4975Q655.275 112.875 655.275 111.735H656.625Q656.625 112.305 657.03 112.6275Q657.435 112.95 658.17 112.95H658.83Q659.58 112.95 659.9925000000001 112.62Q660.405 112.29 660.405 111.69Q660.405 110.625 659.43 110.49L657.15 110.16Q656.31 110.04 655.845 109.4625Q655.38 108.885 655.38 107.94Q655.38 106.86 656.1225 106.245Q656.865 105.63 658.17 105.63H658.83Q660.03 105.63 660.7874999999999 106.2225Q661.545 106.815 661.605 107.775H660.24Q660.21 107.34 659.8275000000001 107.055Q659.445 106.77 658.83 106.77H658.17Q657.48 106.77 657.09 107.08500000000001Q656.7 107.4 656.7 107.94Q656.7 108.81 657.495 108.93L659.625 109.23Q661.725 109.53 661.725 111.69Q661.725 112.845 660.9675 113.4825Q660.21 114.12 658.83 114.12Z M666.78 114.15Q665.505 114.15 664.755 113.4375Q664.005 112.725 664.005 111.57Q664.005 110.805 664.35 110.23500000000001Q664.695 109.665 665.31 109.3425Q665.925 109.02 666.72 109.02H669.27V108.375Q669.27 106.77 667.515 106.77Q666.735 106.77 666.255 107.055Q665.775 107.34 665.745 107.85H664.395Q664.47 106.875 665.3025 106.2375Q666.135 105.6 667.515 105.6Q669.015 105.6 669.8175 106.32Q670.62 107.04 670.62 108.33V114.0H669.285V112.5H669.255Q669.135 113.265 668.49 113.70750000000001Q667.845 114.15 666.78 114.15ZM667.11 113.01Q668.1 113.01 668.685 112.53Q669.27 112.05 669.27 111.225V110.07H666.87Q666.21 110.07 665.7975 110.4675Q665.385 110.865 665.385 111.525Q665.385 112.215 665.8425 112.61250000000001Q666.3 113.01 667.11 113.01Z M675.225 114.0V108.105H672.825V106.875H675.225V105.15Q675.225 104.175 675.84 103.6125Q676.455 103.05 677.535 103.05H679.95V104.28H677.535Q676.575 104.28 676.575 105.15V106.875H679.95V108.105H676.575V114.0Z M685.5 114.15Q684.045 114.15 683.1524999999999 113.27250000000001Q682.26 112.395 682.26 110.85V108.9Q682.26 107.355 683.1524999999999 106.47749999999999Q684.045 105.6 685.5 105.6Q686.475 105.6 687.2025 105.99Q687.93 106.38 688.335 107.08500000000001Q688.74 107.79 688.74 108.75V110.22H683.58V111.0Q683.58 111.915 684.105 112.4475Q684.63 112.98 685.5 112.98Q686.25 112.98 686.7375 112.6875Q687.225 112.395 687.33 111.9H688.68Q688.545 112.935 687.675 113.5425Q686.805 114.15 685.5 114.15ZM683.58 109.17H687.42V108.75Q687.42 107.775 686.9175 107.2425Q686.415 106.71 685.5 106.71Q684.585 106.71 684.0825 107.2425Q683.58 107.775 683.58 108.75Z" fill="#4A4E57"/>
</svg>
